<svg width="150" height="150" viewBox="0 0 150 150" fill="none" xmlns="http://www.w3.org/2000/svg">
<rect width="150" height="150" fill="#1C6753"/>
<path d="M15 77.8179C15 76.0833 15.3313 74.521 15.9938 73.131C16.6563 71.7286 17.5688 70.5353 18.7313 69.5512C19.9063 68.5548 21.2938 67.7921 22.8938 67.2631C24.5063 66.7218 26.25 66.4512 28.125 66.4512C28.925 66.4512 29.7125 66.5004 30.4875 66.5988C31.275 66.6972 32.025 66.8325 32.7375 67.0048C33.4625 67.177 34.1375 67.3861 34.7625 67.6321C35.4 67.8659 35.9625 68.1242 36.45 68.4071V58H42V88.6125H36.45V86.5643C35.9625 86.8964 35.3875 87.2101 34.725 87.5054C34.0625 87.8006 33.35 88.0589 32.5875 88.2804C31.825 88.5018 31.0313 88.674 30.2063 88.797C29.3938 88.9323 28.5875 89 27.7875 89C25.9125 89 24.1875 88.7294 22.6125 88.1881C21.05 87.6468 19.7063 86.8841 18.5813 85.9C17.4563 84.9159 16.575 83.7411 15.9375 82.3756C15.3125 80.9978 15 79.4786 15 77.8179ZM20.8313 77.8179C20.8313 78.6913 21.0063 79.5155 21.3563 80.2905C21.7188 81.0655 22.2313 81.7482 22.8938 82.3387C23.5688 82.9169 24.375 83.3782 25.3125 83.7226C26.2625 84.0548 27.325 84.2208 28.5 84.2208C29.25 84.2208 30 84.1532 30.75 84.0179C31.5 83.8702 32.2188 83.6673 32.9063 83.4089C33.6063 83.1506 34.2563 82.8369 34.8563 82.4679C35.4688 82.0988 36 81.6867 36.45 81.2315V73.6845C35.8875 73.2417 35.2938 72.8665 34.6688 72.5589C34.0438 72.2514 33.4063 71.9992 32.7563 71.8024C32.1063 71.6056 31.45 71.4641 30.7875 71.378C30.125 71.2796 29.4813 71.2304 28.8563 71.2304C27.5813 71.2304 26.4438 71.4026 25.4438 71.747C24.4563 72.0792 23.6188 72.5405 22.9313 73.131C22.2563 73.7214 21.7375 74.4165 21.375 75.2161C21.0125 76.0157 20.8313 76.8829 20.8313 77.8179Z" fill="white"/>
<path d="M128.915 89.309C127.406 89.309 126.044 88.9758 124.829 88.3095C123.633 87.6235 122.683 86.6631 121.977 85.4283C121.291 84.174 120.948 82.7138 120.948 81.0479C120.948 79.3819 121.301 77.9315 122.006 76.6968C122.712 75.4424 123.672 74.482 124.888 73.8156C126.103 73.1297 127.465 72.7867 128.974 72.7867C130.483 72.7867 131.845 73.1297 133.061 73.8156C134.295 74.482 135.256 75.4424 135.942 76.6968C136.647 77.9315 137 79.3819 137 81.0479C137 82.6942 136.647 84.1446 135.942 85.3989C135.236 86.6533 134.266 87.6235 133.031 88.3095C131.796 88.9758 130.424 89.309 128.915 89.309ZM128.915 87.5157C129.974 87.5157 130.954 87.2805 131.855 86.8101C132.757 86.3201 133.482 85.5949 134.031 84.6346C134.599 83.6546 134.883 82.459 134.883 81.0479C134.883 79.6367 134.609 78.4509 134.06 77.4905C133.511 76.5106 132.786 75.7854 131.885 75.315C130.983 74.825 130.003 74.58 128.945 74.58C127.886 74.58 126.906 74.825 126.005 75.315C125.103 75.7854 124.378 76.5106 123.829 77.4905C123.3 78.4509 123.035 79.6367 123.035 81.0479C123.035 82.459 123.3 83.6546 123.829 84.6346C124.378 85.5949 125.093 86.3201 125.975 86.8101C126.877 87.2805 127.857 87.5157 128.915 87.5157Z" fill="white"/>
<path d="M116.2 69.9937C115.788 69.9937 115.435 69.8467 115.141 69.5528C114.847 69.2588 114.7 68.8962 114.7 68.465C114.7 68.0338 114.847 67.681 115.141 67.4066C115.435 67.1126 115.788 66.9656 116.2 66.9656C116.611 66.9656 116.964 67.1126 117.258 67.4066C117.552 67.681 117.699 68.0338 117.699 68.465C117.699 68.8962 117.552 69.2588 117.258 69.5528C116.964 69.8467 116.611 69.9937 116.2 69.9937ZM117.229 73.0219V89.0738H115.171V73.0219H117.229Z" fill="white"/>
<path d="M94.3911 81.0185C94.3911 79.3721 94.7243 77.9315 95.3907 76.6968C96.0571 75.4424 96.9684 74.482 98.1248 73.8156C99.3008 73.1297 100.624 72.7867 102.094 72.7867C103.505 72.7867 104.779 73.1297 105.916 73.8156C107.052 74.5016 107.885 75.3934 108.415 76.491V67.3184H110.472V89.0738H108.415V85.4871C107.925 86.6043 107.121 87.5255 106.004 88.2507C104.887 88.9562 103.573 89.309 102.064 89.309C100.594 89.309 99.2714 88.966 98.0954 88.2801C96.939 87.5941 96.0277 86.6239 95.3613 85.3695C94.7145 84.1152 94.3911 82.6648 94.3911 81.0185ZM108.415 81.0479C108.415 79.7543 108.15 78.6175 107.621 77.6375C107.092 76.6576 106.366 75.903 105.445 75.3738C104.544 74.8446 103.544 74.58 102.446 74.58C101.31 74.58 100.291 74.8348 99.389 75.3444C98.4874 75.854 97.772 76.5988 97.2428 77.5787C96.7332 78.5391 96.4785 79.6857 96.4785 81.0185C96.4785 82.3316 96.7332 83.488 97.2428 84.4876C97.772 85.4675 98.4874 86.2221 99.389 86.7513C100.291 87.2609 101.31 87.5157 102.446 87.5157C103.544 87.5157 104.544 87.2511 105.445 86.7219C106.366 86.1927 107.092 85.4381 107.621 84.4582C108.15 83.4782 108.415 82.3414 108.415 81.0479Z" fill="white"/>
<path d="M90.6335 73.0219V89.0738H88.5756V86.2515C88.1052 87.2511 87.38 88.0155 86.4 88.5447C85.4201 89.0738 84.3225 89.3384 83.1073 89.3384C81.1866 89.3384 79.6186 88.7505 78.4034 87.5745C77.1883 86.3789 76.5807 84.6542 76.5807 82.4002V73.0219H78.6092V82.165C78.6092 83.9094 79.0404 85.2421 79.9028 86.1633C80.7848 87.0845 81.9803 87.5451 83.4895 87.5451C85.0379 87.5451 86.2726 87.0551 87.1938 86.0751C88.115 85.0951 88.5756 83.6546 88.5756 81.7534V73.0219H90.6335Z" fill="white"/>
<path d="M68.9238 74.7564V84.7228C68.9238 85.7027 69.11 86.3789 69.4824 86.7513C69.8548 87.1237 70.5113 87.3099 71.4521 87.3099H73.3337V89.0738H71.1287C69.6784 89.0738 68.6004 88.7407 67.8948 88.0743C67.1892 87.3883 66.8364 86.2711 66.8364 84.7228V74.7564H64.6021V73.0219H66.8364V68.9942H68.9238V73.0219H73.3337V74.7564H68.9238Z" fill="white"/>
<path d="M56.7888 89.309C54.9465 89.309 53.4373 88.8876 52.2613 88.0449C51.105 87.1825 50.4582 86.0163 50.321 84.5464H52.4377C52.5357 85.4479 52.9571 86.1829 53.7019 86.7513C54.4663 87.3001 55.4854 87.5745 56.7594 87.5745C57.8766 87.5745 58.7488 87.3099 59.3759 86.7807C60.0227 86.2515 60.3461 85.5949 60.3461 84.811C60.3461 84.2622 60.1697 83.8114 59.8169 83.4586C59.4641 83.1058 59.0133 82.8314 58.4646 82.6354C57.9354 82.4198 57.2102 82.1944 56.289 81.9592C55.0935 81.6456 54.1233 81.332 53.3785 81.0185C52.6337 80.7049 51.9967 80.2443 51.4675 79.6367C50.958 79.0095 50.7032 78.1765 50.7032 77.1378C50.7032 76.3538 50.9384 75.6286 51.4087 74.9622C51.8791 74.2958 52.5455 73.7666 53.4079 73.3747C54.2703 72.9827 55.2502 72.7867 56.3478 72.7867C58.0726 72.7867 59.4641 73.2277 60.5225 74.1096C61.5809 74.972 62.1493 76.1676 62.2277 77.6963H60.1697C60.1109 76.7556 59.7385 76.001 59.0525 75.4326C58.3862 74.8446 57.465 74.5506 56.289 74.5506C55.2502 74.5506 54.4075 74.7956 53.7607 75.2856C53.1139 75.7756 52.7905 76.3832 52.7905 77.1084C52.7905 77.7355 52.9767 78.2549 53.3491 78.6665C53.7411 79.0585 54.2213 79.3721 54.7897 79.6073C55.358 79.8229 56.1224 80.0679 57.0828 80.3423C58.2392 80.6559 59.1603 80.9597 59.8463 81.2536C60.5323 81.5476 61.1203 81.9788 61.6103 82.5472C62.1003 83.1156 62.3551 83.8702 62.3747 84.811C62.3747 85.6733 62.1395 86.4475 61.6691 87.1335C61.1987 87.7999 60.5421 88.3291 59.6993 88.7211C58.8566 89.113 57.8864 89.309 56.7888 89.309Z" fill="white"/>
<path d="M46.2745 89.2208C45.8433 89.2208 45.4807 89.0738 45.1867 88.7799C44.9123 88.4859 44.7751 88.1233 44.7751 87.6921C44.7751 87.2609 44.9123 86.9081 45.1867 86.6337C45.4807 86.3397 45.8433 86.1927 46.2745 86.1927C46.686 86.1927 47.029 86.3397 47.3034 86.6337C47.5974 86.9081 47.7444 87.2609 47.7444 87.6921C47.7444 88.1233 47.5974 88.4859 47.3034 88.7799C47.029 89.0738 46.686 89.2208 46.2745 89.2208Z" fill="white"/>
</svg>
