<svg width="301" height="46" viewBox="0 0 301 46" fill="none" xmlns="http://www.w3.org/2000/svg">
<path d="M161.257 10.6946H167.527V12.8131C169.194 11.8668 170.783 11.2031 172.294 10.8218C173.819 10.4404 175.309 10.2498 176.764 10.2498C178.67 10.2498 180.436 10.5322 182.06 11.0971C183.684 11.6479 185.089 12.4741 186.276 13.5757C187.462 14.6773 188.387 16.0543 189.051 17.7067C189.729 19.3449 190.067 21.2444 190.067 23.4052V35.6921H183.818V24.4221C183.818 23.0522 183.62 21.8305 183.225 20.7572C182.844 19.6697 182.286 18.7588 181.551 18.0244C180.831 17.2759 179.948 16.711 178.903 16.3297C177.872 15.9342 176.714 15.7365 175.429 15.7365C174.751 15.7365 174.052 15.8071 173.332 15.9484C172.626 16.0896 171.927 16.2944 171.235 16.5627C170.557 16.8169 169.9 17.1417 169.265 17.5372C168.629 17.9185 168.05 18.3563 167.527 18.8506V35.6921H161.257V10.6946Z" fill="white"/>
<path d="M124.015 27.8116C124.015 26.6111 124.276 25.5166 124.798 24.528C125.321 23.5394 126.105 22.692 127.15 21.9859C128.195 21.2656 129.494 20.7148 131.048 20.3335C132.615 19.9381 134.437 19.7403 136.513 19.7403C138.053 19.7403 139.67 19.8533 141.365 20.0793C143.073 20.3053 144.832 20.6513 146.639 21.1173C146.569 20.3264 146.329 19.5991 145.919 18.9353C145.51 18.2574 144.938 17.6784 144.203 17.1982C143.483 16.7039 142.607 16.3226 141.576 16.0543C140.56 15.7859 139.402 15.6518 138.102 15.6518C137.396 15.6518 136.619 15.6941 135.772 15.7789C134.925 15.8636 134.049 15.9907 133.145 16.1602C132.241 16.3297 131.344 16.5415 130.455 16.7957C129.579 17.0499 128.76 17.3536 127.997 17.7067L126.091 12.5589C127.037 12.2199 128.047 11.9092 129.12 11.6268C130.208 11.3443 131.316 11.1042 132.446 10.9065C133.576 10.6946 134.706 10.5322 135.835 10.4192C136.965 10.3063 138.06 10.2498 139.119 10.2498C143.794 10.2498 147.268 11.4432 149.542 13.8299C151.816 16.2167 152.952 19.8745 152.952 24.8034V35.6921H146.682V33.3407C146.032 33.722 145.319 34.0821 144.542 34.4211C143.78 34.76 142.946 35.0566 142.042 35.3108C141.139 35.565 140.164 35.7627 139.119 35.904C138.088 36.0593 136.994 36.137 135.835 36.137C133.887 36.137 132.171 35.9252 130.688 35.5015C129.219 35.0778 127.99 34.4917 127.002 33.7432C126.013 32.9947 125.265 32.119 124.756 31.1163C124.262 30.0995 124.015 28.9979 124.015 27.8116ZM130.624 27.5997C130.624 28.0093 130.73 28.4047 130.942 28.786C131.154 29.1532 131.493 29.4851 131.959 29.7817C132.425 30.0642 133.018 30.2972 133.738 30.4808C134.473 30.6503 135.355 30.735 136.386 30.735C137.488 30.735 138.554 30.6361 139.585 30.4384C140.616 30.2407 141.576 29.9794 142.466 29.6546C143.356 29.3298 144.161 28.9555 144.881 28.5318C145.601 28.1081 146.202 27.6703 146.682 27.2184V26.1168C145.722 25.8485 144.768 25.6225 143.822 25.4389C142.89 25.2553 141.993 25.1141 141.132 25.0152C140.284 24.9023 139.479 24.8246 138.717 24.7822C137.968 24.7398 137.311 24.7187 136.746 24.7187C135.574 24.7187 134.6 24.7963 133.823 24.9517C133.046 25.107 132.418 25.3189 131.938 25.5872C131.457 25.8414 131.118 26.1451 130.921 26.4981C130.723 26.8512 130.624 27.2184 130.624 27.5997Z" fill="white"/>
<path d="M110.88 0.547363H117.151V35.6921H110.88V0.547363Z" fill="white"/>
<path d="M80.545 45.903H74.2744V10.6946H80.545V13.0461C81.0958 12.6648 81.7454 12.3047 82.4939 11.9657C83.2424 11.6268 84.0474 11.3302 84.9089 11.076C85.7704 10.8218 86.6602 10.624 87.5782 10.4828C88.4961 10.3275 89.4141 10.2498 90.3321 10.2498C92.4505 10.2498 94.3924 10.5605 96.1578 11.1819C97.9373 11.8033 99.4626 12.6789 100.734 13.8087C102.005 14.9386 102.993 16.2944 103.699 17.8761C104.42 19.4438 104.78 21.1809 104.78 23.0875C104.78 25.0788 104.406 26.8795 103.657 28.4895C102.909 30.0853 101.871 31.4553 100.543 32.5992C99.2295 33.729 97.6619 34.6047 95.84 35.2261C94.0323 35.8334 92.0692 36.137 89.9508 36.137C89.0469 36.137 88.1501 36.0805 87.2604 35.9675C86.3848 35.8545 85.5374 35.6992 84.7183 35.5015C83.9133 35.3037 83.1506 35.0707 82.4304 34.8024C81.7242 34.5199 81.0958 34.2163 80.545 33.8915V45.903ZM80.545 27.8327C81.1805 28.3412 81.8513 28.7719 82.5575 29.125C83.2636 29.4781 83.9839 29.7676 84.7183 29.9935C85.4527 30.2195 86.1941 30.389 86.9426 30.502C87.6911 30.6008 88.4185 30.6503 89.1246 30.6503C90.5651 30.6503 91.8433 30.4596 92.959 30.0783C94.0888 29.6828 95.035 29.1462 95.7977 28.4683C96.5744 27.7904 97.1676 26.9924 97.5772 26.0745C97.9867 25.1565 98.1915 24.1608 98.1915 23.0875C98.1915 22.0847 97.9867 21.1385 97.5772 20.2488C97.1817 19.359 96.6027 18.5823 95.84 17.9185C95.0915 17.2406 94.1806 16.711 93.1073 16.3297C92.048 15.9342 90.8547 15.7365 89.5271 15.7365C88.6797 15.7365 87.8324 15.8212 86.985 15.9907C86.1376 16.1461 85.3185 16.372 84.5276 16.6686C83.7509 16.9652 83.0165 17.3253 82.3245 17.749C81.6466 18.1727 81.0534 18.6458 80.545 19.1684V27.8327Z" fill="white"/>
<path d="M38.2607 10.6735H44.5101V22.8756C44.5101 24.0337 44.6372 25.0929 44.8914 26.0533C45.1456 26.9995 45.5764 27.8116 46.1837 28.4895C46.8051 29.1674 47.6242 29.697 48.6411 30.0783C49.672 30.4455 50.9501 30.6291 52.4754 30.6291C53.1957 30.6291 53.923 30.5514 54.6574 30.3961C55.4059 30.2407 56.1191 30.0289 56.797 29.7605C57.4749 29.4781 58.1034 29.1462 58.6824 28.7649C59.2756 28.3835 59.784 27.9669 60.2077 27.515V10.6735H66.4782V35.6921H60.2077V33.5525C58.6683 34.4705 57.1218 35.1272 55.5683 35.5227C54.0148 35.9181 52.539 36.1158 51.1408 36.1158C48.8529 36.1158 46.8898 35.8404 45.2516 35.2896C43.6274 34.7388 42.2928 33.9409 41.2477 32.8958C40.2168 31.8366 39.4612 30.5443 38.981 29.0191C38.5008 27.4797 38.2607 25.7284 38.2607 23.7654V10.6735Z" fill="white"/>
<path d="M0.0654297 23.2993C0.0654297 21.308 0.439686 19.5144 1.1882 17.9185C1.93671 16.3085 2.96768 14.9386 4.28111 13.8087C5.60866 12.6648 7.1763 11.7892 8.98402 11.1819C10.8059 10.5605 12.776 10.2498 14.8944 10.2498C15.7983 10.2498 16.688 10.3063 17.5637 10.4192C18.4534 10.5322 19.3008 10.6876 20.1058 10.8853C20.9249 11.083 21.6875 11.3231 22.3937 11.6056C23.114 11.8739 23.7495 12.1705 24.3003 12.4953V0.547363H30.5708V35.6921H24.3003V33.3407C23.7495 33.722 23.0998 34.0821 22.3513 34.4211C21.6028 34.76 20.7978 35.0566 19.9363 35.3108C19.0748 35.565 18.178 35.7627 17.2459 35.904C16.3279 36.0593 15.417 36.137 14.5131 36.137C12.3947 36.137 10.4457 35.8263 8.66626 35.2049C6.9009 34.5835 5.38269 33.7079 4.11163 32.578C2.84057 31.4482 1.84491 30.0995 1.12465 28.5318C0.418501 26.9501 0.0654297 25.2059 0.0654297 23.2993ZM6.65375 23.2993C6.65375 24.302 6.85147 25.2483 7.24691 26.138C7.65647 27.0277 8.23551 27.8116 8.98402 28.4895C9.74666 29.1532 10.6576 29.6828 11.7168 30.0783C12.7901 30.4596 13.9906 30.6503 15.3181 30.6503C16.1655 30.6503 17.0129 30.5726 17.8602 30.4172C18.7076 30.2478 19.5197 30.0147 20.2964 29.7182C21.0873 29.4216 21.8217 29.0614 22.4996 28.6378C23.1916 28.2141 23.7919 27.741 24.3003 27.2184V18.554C23.6647 18.0456 22.9939 17.6149 22.2878 17.2618C21.5816 16.9087 20.8614 16.6192 20.127 16.3932C19.3926 16.1673 18.6511 16.0048 17.9026 15.906C17.1541 15.793 16.4268 15.7365 15.7206 15.7365C14.2801 15.7365 12.9949 15.9342 11.8651 16.3297C10.7494 16.711 9.80315 17.2406 9.02639 17.9185C8.26376 18.5964 7.67766 19.3943 7.26809 20.3123C6.85853 21.2303 6.65375 22.226 6.65375 23.2993Z" fill="white"/>
<path d="M290.786 35.9621C289.054 35.9621 287.49 35.5796 286.095 34.8148C284.723 34.0274 283.632 32.9251 282.822 31.5078C282.035 30.0681 281.641 28.3921 281.641 26.4799C281.641 24.5678 282.046 22.9031 282.856 21.4858C283.666 20.046 284.768 18.9437 286.163 18.1789C287.558 17.3915 289.121 16.9978 290.853 16.9978C292.585 16.9978 294.149 17.3915 295.544 18.1789C296.961 18.9437 298.063 20.046 298.851 21.4858C299.661 22.9031 300.065 24.5678 300.065 26.4799C300.065 28.3696 299.661 30.0343 298.851 31.4741C298.041 32.9139 296.927 34.0274 295.51 34.8148C294.093 35.5796 292.518 35.9621 290.786 35.9621ZM290.786 33.9037C292.001 33.9037 293.125 33.6337 294.16 33.0938C295.195 32.5314 296.027 31.6991 296.657 30.5967C297.31 29.4719 297.636 28.0997 297.636 26.4799C297.636 24.8602 297.321 23.4992 296.691 22.3969C296.061 21.2721 295.229 20.4397 294.194 19.8998C293.159 19.3374 292.034 19.0562 290.82 19.0562C289.605 19.0562 288.48 19.3374 287.445 19.8998C286.41 20.4397 285.578 21.2721 284.948 22.3969C284.341 23.4992 284.037 24.8602 284.037 26.4799C284.037 28.0997 284.341 29.4719 284.948 30.5967C285.578 31.6991 286.399 32.5314 287.411 33.0938C288.446 33.6337 289.571 33.9037 290.786 33.9037Z" fill="white"/>
<path d="M276.191 13.7921C275.718 13.7921 275.313 13.6234 274.976 13.2859C274.638 12.9485 274.47 12.5323 274.47 12.0374C274.47 11.5425 274.638 11.1376 274.976 10.8226C275.313 10.4852 275.718 10.3165 276.191 10.3165C276.663 10.3165 277.068 10.4852 277.405 10.8226C277.743 11.1376 277.912 11.5425 277.912 12.0374C277.912 12.5323 277.743 12.9485 277.405 13.2859C277.068 13.6234 276.663 13.7921 276.191 13.7921ZM277.372 17.2678V35.6921H275.01V17.2678H277.372Z" fill="white"/>
<path d="M251.159 26.4462C251.159 24.5565 251.542 22.9031 252.306 21.4858C253.071 20.046 254.117 18.9437 255.445 18.1789C256.794 17.3915 258.313 16.9978 260 16.9978C261.62 16.9978 263.082 17.3915 264.387 18.1789C265.692 18.9662 266.648 19.9898 267.255 21.2496V10.7214H269.617V35.6921H267.255V31.5753C266.693 32.8576 265.77 33.9149 264.488 34.7473C263.206 35.5571 261.699 35.9621 259.966 35.9621C258.279 35.9621 256.761 35.5684 255.411 34.781C254.084 33.9937 253.038 32.8801 252.273 31.4403C251.53 30.0006 251.159 28.3359 251.159 26.4462ZM267.255 26.4799C267.255 24.9952 266.951 23.6904 266.344 22.5656C265.737 21.4408 264.904 20.5747 263.847 19.9673C262.812 19.3599 261.665 19.0562 260.405 19.0562C259.1 19.0562 257.931 19.3487 256.896 19.9336C255.861 20.5185 255.04 21.3733 254.432 22.4981C253.847 23.6004 253.555 24.9165 253.555 26.4462C253.555 27.9534 253.847 29.2807 254.432 30.428C255.04 31.5528 255.861 32.4189 256.896 33.0263C257.931 33.6112 259.1 33.9037 260.405 33.9037C261.665 33.9037 262.812 33.6 263.847 32.9926C264.904 32.3852 265.737 31.5191 266.344 30.3943C266.951 29.2695 267.255 27.9647 267.255 26.4799Z" fill="white"/>
<path d="M246.847 17.2678V35.6921H244.484V32.4527C243.945 33.6 243.112 34.4773 241.987 35.0847C240.863 35.6921 239.603 35.9958 238.208 35.9958C236.003 35.9958 234.204 35.3209 232.809 33.9712C231.414 32.5989 230.717 30.6192 230.717 28.0322V17.2678H233.045V27.7622C233.045 29.7644 233.54 31.2941 234.53 32.3514C235.542 33.4088 236.914 33.9374 238.647 33.9374C240.424 33.9374 241.841 33.375 242.898 32.2502C243.956 31.1254 244.484 29.4719 244.484 27.2898V17.2678H246.847Z" fill="white"/>
<path d="M221.928 19.2587V30.698C221.928 31.8228 222.141 32.5989 222.569 33.0263C222.996 33.4538 223.75 33.6675 224.83 33.6675H226.989V35.6921H224.459C222.794 35.6921 221.557 35.3097 220.747 34.5448C219.937 33.7575 219.532 32.4752 219.532 30.698V19.2587H216.967V17.2678H219.532V12.6448H221.928V17.2678H226.989V19.2587H221.928Z" fill="white"/>
<path d="M208 35.9621C205.885 35.9621 204.153 35.4784 202.803 34.5111C201.476 33.5212 200.734 32.1827 200.576 30.4955H203.006C203.118 31.5303 203.602 32.3739 204.457 33.0263C205.334 33.6562 206.504 33.9712 207.966 33.9712C209.248 33.9712 210.25 33.6675 210.969 33.0601C211.712 32.4527 212.083 31.6991 212.083 30.7992C212.083 30.1693 211.88 29.6519 211.476 29.247C211.071 28.842 210.553 28.5271 209.923 28.3021C209.316 28.0547 208.484 27.796 207.426 27.526C206.054 27.1661 204.94 26.8061 204.086 26.4462C203.231 26.0863 202.5 25.5576 201.892 24.8602C201.307 24.1403 201.015 23.1843 201.015 21.992C201.015 21.0921 201.285 20.2598 201.825 19.4949C202.365 18.73 203.129 18.1226 204.119 17.6727C205.109 17.2228 206.234 16.9978 207.494 16.9978C209.473 16.9978 211.071 17.504 212.285 18.5163C213.5 19.5061 214.153 20.8784 214.243 22.6331H211.88C211.813 21.5533 211.386 20.6872 210.598 20.0348C209.833 19.3599 208.776 19.0225 207.426 19.0225C206.234 19.0225 205.267 19.3037 204.524 19.8661C203.782 20.4285 203.411 21.1259 203.411 21.9582C203.411 22.6781 203.624 23.2742 204.052 23.7467C204.502 24.1966 205.053 24.5565 205.705 24.8265C206.358 25.0739 207.235 25.3551 208.337 25.6701C209.665 26.03 210.722 26.3787 211.509 26.7162C212.297 27.0536 212.972 27.5485 213.534 28.2009C214.096 28.8533 214.389 29.7194 214.411 30.7992C214.411 31.789 214.141 32.6776 213.601 33.465C213.062 34.2299 212.308 34.8373 211.341 35.2872C210.373 35.7371 209.26 35.9621 208 35.9621Z" fill="white"/>
<path d="M195.931 35.8608C195.436 35.8608 195.02 35.6921 194.682 35.3547C194.367 35.0172 194.21 34.6011 194.21 34.1061C194.21 33.6112 194.367 33.2063 194.682 32.8914C195.02 32.5539 195.436 32.3852 195.931 32.3852C196.403 32.3852 196.797 32.5539 197.112 32.8914C197.449 33.2063 197.618 33.6112 197.618 34.1061C197.618 34.6011 197.449 35.0172 197.112 35.3547C196.797 35.6921 196.403 35.8608 195.931 35.8608Z" fill="white"/>
</svg>
